<svg width="192" height="129" viewBox="0 0 192 129" fill="none" xmlns="http://www.w3.org/2000/svg"><path d="M4 8L4 116" stroke="white"/><rect x="8" y="116" width="8" height="8" rx="4" transform="rotate(90 8 116)" fill="white"/><path d="M12 54L4 50V58L12 54Z" fill="white"/><path d="M12 12L4 8V16L12 12Z" fill="white"/><path d="M28.6953 128.281C32.5859 128.281 35.2344 126.23 35.8789 122.738H33.2656C32.7383 124.777 31.0625 125.984 28.707 125.984C25.6016 125.984 23.6328 123.488 23.6328 119.539C23.6328 115.625 25.625 113.105 28.6953 113.105C30.9922 113.105 32.7969 114.523 33.2656 116.691H35.8672C35.4219 113.164 32.5273 110.809 28.6953 110.809C23.9727 110.809 20.9492 114.184 20.9492 119.539C20.9492 124.93 23.9492 128.281 28.6953 128.281Z" fill="white"/><path d="M38.0352 128H40.5664V111.09H38.0352V128Z" fill="white"/><path d="M43.25 128H45.7812V115.672H43.25V128ZM44.5156 113.68C45.3242 113.68 45.9688 113.023 45.9688 112.227C45.9688 111.418 45.3242 110.773 44.5156 110.773C43.707 110.773 43.0508 111.418 43.0508 112.227C43.0508 113.023 43.707 113.68 44.5156 113.68Z" fill="white"/><path d="M58.9531 119.914C58.7305 117.488 56.7969 115.449 53.6211 115.449C50.1172 115.449 47.8203 117.922 47.8203 121.836C47.8203 125.82 50.1172 128.234 53.6445 128.234C56.6094 128.234 58.707 126.453 58.9766 123.828H56.5391C56.2461 125.258 55.2266 126.113 53.668 126.113C51.6992 126.113 50.3984 124.543 50.3984 121.836C50.3984 119.188 51.6875 117.559 53.6445 117.559C55.2969 117.559 56.2812 118.602 56.5391 119.914H58.9531Z" fill="white"/><path d="M63.418 120.957H63.3945V111.09H60.8633V128H63.3945V123.57L64.4492 122.527L68.6328 128H71.5742L66.2656 120.98L71.375 115.672H68.3984L63.418 120.957Z" fill="white"/><path d="M78.5 112.754V115.672H76.707V117.676H78.5V124.754C78.5 127.133 79.4727 128.082 81.9688 128.082C82.5312 128.082 83.0938 128.035 83.375 127.965V125.961C83.2109 125.996 82.8008 126.02 82.543 126.02C81.5117 126.02 81.043 125.539 81.043 124.473V117.676H83.3867V115.672H81.043V112.754H78.5Z" fill="white"/><path d="M90.4648 128.234C93.9922 128.234 96.3125 125.809 96.3125 121.836C96.3125 117.875 93.9805 115.449 90.4648 115.449C86.9492 115.449 84.6172 117.875 84.6172 121.836C84.6172 125.809 86.9375 128.234 90.4648 128.234ZM90.4648 126.148C88.4844 126.148 87.1953 124.578 87.1953 121.836C87.1953 119.105 88.4844 117.535 90.4648 117.535C92.4453 117.535 93.7344 119.105 93.7344 121.836C93.7344 124.578 92.457 126.148 90.4648 126.148Z" fill="white"/><path d="M103.145 128H105.676V120.617C105.676 118.871 106.684 117.781 108.312 117.781C108.805 117.781 109.25 117.84 109.449 117.922V115.566C109.262 115.531 108.945 115.473 108.582 115.473C107.129 115.473 106.027 116.328 105.617 117.77H105.559V115.672H103.145V128Z" fill="white"/><path d="M121.59 115.672H119.059V122.855C119.059 124.777 117.957 126.043 116.129 126.043C114.383 126.043 113.492 125.035 113.492 123.16V115.672H110.961V123.652C110.961 126.477 112.602 128.223 115.285 128.223C117.172 128.223 118.426 127.391 119.105 125.914H119.164V128H121.59V115.672Z" fill="white"/><path d="M124.098 128H126.629V120.816C126.629 118.906 127.777 117.641 129.559 117.641C131.316 117.641 132.184 118.66 132.184 120.512V128H134.727V120.02C134.727 117.195 133.168 115.461 130.449 115.461C128.551 115.461 127.238 116.328 126.57 117.734H126.512V115.672H124.098V128Z" fill="white"/><path d="M152.633 119.914C152.41 117.488 150.477 115.449 147.301 115.449C143.797 115.449 141.5 117.922 141.5 121.836C141.5 125.82 143.797 128.234 147.324 128.234C150.289 128.234 152.387 126.453 152.656 123.828H150.219C149.926 125.258 148.906 126.113 147.348 126.113C145.379 126.113 144.078 124.543 144.078 121.836C144.078 119.188 145.367 117.559 147.324 117.559C148.977 117.559 149.961 118.602 150.219 119.914H152.633Z" fill="white"/><path d="M159.746 128.234C163.273 128.234 165.594 125.809 165.594 121.836C165.594 117.875 163.262 115.449 159.746 115.449C156.23 115.449 153.898 117.875 153.898 121.836C153.898 125.809 156.219 128.234 159.746 128.234ZM159.746 126.148C157.766 126.148 156.477 124.578 156.477 121.836C156.477 119.105 157.766 117.535 159.746 117.535C161.727 117.535 163.016 119.105 163.016 121.836C163.016 124.578 161.738 126.148 159.746 126.148Z" fill="white"/><path d="M172.18 128.211C173.973 128.211 175.379 127.309 176.105 125.902H176.152V128H178.613V111.09H176.07V117.723H176.023C175.332 116.363 173.926 115.473 172.156 115.473C169.062 115.473 167 117.945 167 121.836C167 125.727 169.062 128.211 172.18 128.211ZM172.848 117.605C174.793 117.605 176.094 119.281 176.094 121.836C176.094 124.414 174.793 126.066 172.848 126.066C170.844 126.066 169.59 124.438 169.59 121.836C169.59 119.246 170.844 117.605 172.848 117.605Z" fill="white"/><path d="M186.371 117.488C188.141 117.488 189.336 118.812 189.395 120.699H183.23C183.359 118.836 184.602 117.488 186.371 117.488ZM189.383 124.379C189.043 125.457 187.977 126.184 186.535 126.184C184.508 126.184 183.219 124.766 183.219 122.621V122.469H191.926V121.602C191.926 117.863 189.793 115.449 186.371 115.449C182.891 115.449 180.664 118.027 180.664 121.895C180.664 125.785 182.855 128.234 186.477 128.234C189.301 128.234 191.434 126.629 191.785 124.379H189.383Z" fill="white"/></svg>